<?xml version="1.0" encoding="UTF-8"?>
<!DOCTYPE svg PUBLIC "-//W3C//DTD SVG 1.1//EN" "http://www.w3.org/Graphics/SVG/1.1/DTD/svg11.dtd">
<!-- Creator: CorelDRAW 2019 (64-Bit) -->
<svg xmlns="http://www.w3.org/2000/svg" xml:space="preserve" width="210mm" height="297mm" version="1.1" style="shape-rendering:geometricPrecision; text-rendering:geometricPrecision; image-rendering:optimizeQuality; fill-rule:evenodd; clip-rule:evenodd"
viewBox="0 0 21000 29700"
 xmlns:xlink="http://www.w3.org/1999/xlink"
 xmlns:xodm="http://www.corel.com/coreldraw/odm/2003">
 <defs>
  <style type="text/css">
   <![CDATA[
    .fil0 {fill:#FEFEFE;fill-rule:nonzero}
   ]]>
  </style>
 </defs>
 <g id="Capa_x0020_1">
  <metadata id="CorelCorpID_0Corel-Layer"/>
  <g id="_1893131969520">
   <g>
    <g>
     <path class="fil0" d="M21000 8561.96l0 -1762.45c0,-1089.07 -886.01,-1975.09 -1975.09,-1975.09l-3394.99 0c-306.83,-187.94 -667.34,-296.44 -1052.74,-296.44l-12555.31 0.01c-1114.83,-0.07 -2021.87,906.98 -2021.87,2021.8l0 16600.35c0,1114.89 907.04,2021.87 2021.87,2021.87l12555.24 0c385.46,0 746.04,-108.56 1052.93,-296.56l3394.81 0c1089.07,0 1975.09,-886.01 1975.09,-1975.09l0 -1762.45c0,-604.38 -273.17,-1145.93 -702.18,-1508.5 429.01,-362.57 702.18,-904.12 702.18,-1508.5l0 -1762.51c0,-604.38 -273.17,-1145.93 -702.18,-1508.5 429.01,-362.57 702.18,-904.12 702.18,-1508.5l0 -1762.44c0,-604.38 -273.17,-1145.93 -702.18,-1508.5 429.07,-362.63 702.24,-904.18 702.24,-1508.5zm-5334.19 14588.19c0,600.28 -488.42,1088.7 -1088.7,1088.7l-12555.24 -0.01c-600.28,0 -1088.7,-488.42 -1088.7,-1088.7l0 -16600.35c0,-600.28 488.42,-1088.7 1088.7,-1088.7l12555.24 0c600.28,0 1088.7,488.42 1088.7,1088.7l0 16600.36zm4401.02 -249.72c0,574.52 -467.39,1041.92 -1041.92,1041.92l-2587.68 -0.01c104.08,-243.37 161.81,-511.13 161.81,-792.14l0 -3054.14 2425.87 0.01c574.52,0 1041.92,467.39 1041.92,1041.92l0 1762.44zm0 -4779.51c0,574.52 -467.39,1041.92 -1041.92,1041.92l-2425.86 -0.01 0 -3846.34 2425.86 0c574.52,0 1041.92,467.39 1041.92,1041.92l0 1762.51zm0 -4779.51c0,574.52 -467.39,1041.92 -1041.92,1041.92l-2425.86 -0.01 0 -3846.34 2425.86 0c574.52,0 1041.92,467.39 1041.92,1041.92l0 1762.51zm0 -4779.45c0,574.52 -467.39,1041.92 -1041.92,1041.92l-2425.86 -0.01 0 -3054.08c0,-281.07 -57.79,-548.83 -161.87,-792.26l2587.73 0c574.52,0 1041.92,467.39 1041.92,1041.92l0 1762.51z"/>
     <rect class="fil0" x="2514.14" y="18660.1" width="11570.75" height="933.17"/>
     <path class="fil0" d="M4161.38 17178.04l8276.29 0c140.78,0 274.04,-63.52 362.63,-172.95 88.59,-109.43 123.05,-252.95 93.75,-390.63 -223.65,-1051.81 -813.16,-2001.71 -1646.98,-2676.33 546.34,-673 851.61,-1520.32 851.61,-2396.51 0,-2094.9 -1704.34,-3799.25 -3799.25,-3799.25 -2094.91,0 -3799.25,1704.34 -3799.25,3799.25 0,876.18 305.33,1723.5 851.61,2396.51 -833.76,674.62 -1423.27,1624.46 -1646.86,2676.33 -29.3,137.67 5.16,281.26 93.75,390.63 88.66,109.43 221.92,172.95 362.7,172.95zm2143.3 -2775.68c123.68,-77.45 203.99,-208.41 216.99,-353.8 13,-145.39 -42.74,-288.47 -150.68,-386.71 -595.92,-542.36 -937.65,-1315.15 -937.65,-2120.22 0,-1580.35 1285.72,-2866.08 2866.08,-2866.08 1580.35,0 2866.08,1285.72 2866.08,2866.08 0,805.08 -341.79,1577.87 -937.65,2120.22 -107.94,98.23 -163.68,241.32 -150.68,386.71 13,145.39 93.32,276.28 216.99,353.8 693.91,434.8 1227.74,1088.08 1519.2,1842.58l-7027.88 -0.01c291.46,-754.49 825.3,-1407.9 1519.2,-1842.57z"/>
     <rect class="fil0" x="3970.95" y="20505.54" width="8657.08" height="933.17"/>
    </g>
   </g>
  </g>
  <g id="_1893131967760">
  </g>
  <g id="_1893131968720">
  </g>
  <g id="_1893131969232">
  </g>
  <g id="_1893131966640">
  </g>
  <g id="_1893131965840">
  </g>
  <g id="_1893131965552">
  </g>
  <g id="_1893131967088">
  </g>
  <g id="_1893131963728">
  </g>
  <g id="_1893131956304">
  </g>
  <g id="_1893131956720">
  </g>
  <g id="_1893131956816">
  </g>
  <g id="_1893131953104">
  </g>
  <g id="_1893131953904">
  </g>
  <g id="_1893131954320">
  </g>
  <g id="_1893131953168">
  </g>
 </g>
</svg>
